<?xml version="1.0" standalone="no"?>
<!DOCTYPE svg PUBLIC "-//W3C//DTD SVG 20010904//EN"
 "http://www.w3.org/TR/2001/REC-SVG-20010904/DTD/svg10.dtd">
<svg version="1.0" xmlns="http://www.w3.org/2000/svg"
 width="491.000000pt" height="491.000000pt" viewBox="0 0 491.000000 491.000000"
 preserveAspectRatio="xMidYMid meet">
<metadata>
Created by potrace 1.11, written by Peter Selinger 2001-2013
</metadata>
<g transform="translate(0.000000,491.000000) scale(0.100000,-0.100000)"
fill="#000000" stroke="none">
<path d="M1494 4780 l-18 -70 -53 0 c-29 0 -53 -4 -53 -10 0 -5 22 -10 48 -10
48 0 49 0 44 -30 -4 -28 -7 -30 -48 -30 -24 0 -44 -4 -44 -10 0 -5 18 -10 39
-10 l40 0 -19 -67 c-10 -37 -16 -70 -14 -73 9 -8 22 22 34 81 l13 59 38 0 c45
0 46 -4 24 -76 -17 -57 -18 -64 -7 -64 5 0 16 32 26 70 l18 70 54 0 c30 0 54
5 54 10 0 6 -22 10 -50 10 -52 0 -53 1 -44 38 5 18 13 22 50 22 24 0 44 5 44
10 0 6 -18 10 -40 10 -22 0 -40 1 -40 3 0 2 7 27 16 56 8 29 13 60 11 69 -2 9
-11 -10 -21 -43 -10 -33 -19 -66 -21 -72 -3 -7 -20 -13 -40 -13 -38 0 -44 14
-26 62 16 44 21 78 12 78 -5 0 -17 -31 -27 -70z m65 -120 c-10 -26 -16 -30
-50 -30 -29 0 -37 3 -34 15 3 8 7 22 10 30 3 10 18 15 44 15 l40 0 -10 -30z"/>
<path d="M1820 4833 c-1 -10 -15 -27 -33 -38 -37 -24 -56 -68 -40 -93 8 -14 6
-24 -13 -47 -14 -18 -24 -43 -24 -62 0 -36 14 -47 89 -74 58 -20 69 -45 16
-35 -25 5 -35 4 -30 -3 3 -6 23 -11 44 -11 30 0 40 5 51 25 18 33 5 47 -70 74
-33 12 -62 26 -65 31 -7 12 15 60 29 61 6 1 26 0 44 -1 34 -2 66 16 56 31 -3
5 -23 9 -45 9 -44 0 -49 12 -25 59 12 23 20 27 45 23 17 -2 38 -1 47 2 23 9
-1 36 -32 36 -15 0 -24 6 -24 15 0 21 -20 19 -20 -2z m57 -39 c-3 -3 -12 -4
-19 -1 -8 3 -5 6 6 6 11 1 17 -2 13 -5z m-30 -110 c-3 -3 -12 -4 -19 -1 -8 3
-5 6 6 6 11 1 17 -2 13 -5z"/>
<path d="M2026 4829 c-41 -32 -68 -96 -74 -170 -4 -58 -2 -69 17 -88 34 -34
78 -28 122 19 72 75 91 215 35 252 -21 15 -74 8 -100 -13z m82 -23 c2 -16 1
-44 -3 -63 -6 -32 -8 -33 -50 -33 -25 0 -45 2 -45 4 0 16 34 94 47 108 23 26
47 18 51 -16z m-23 -143 c-11 -46 -40 -88 -62 -91 -27 -4 -35 20 -27 75 l6 43
45 0 c44 0 45 -1 38 -27z"/>
<path d="M3050 4830 c0 -11 -16 -35 -36 -52 -38 -34 -67 -84 -78 -135 -10 -43
14 -87 56 -103 72 -26 79 -31 75 -43 -2 -7 -18 -11 -36 -9 -20 1 -30 -2 -26
-8 3 -5 22 -10 40 -10 26 0 39 6 51 25 14 22 15 27 2 48 -9 13 -34 27 -62 35
-35 9 -49 19 -56 38 -14 36 4 96 40 137 25 29 33 32 70 29 37 -4 41 -2 38 14
-2 12 -13 20 -31 22 -15 2 -27 9 -27 18 0 8 -4 14 -10 14 -5 0 -10 -9 -10 -20z
m57 -36 c-3 -3 -12 -4 -19 -1 -8 3 -5 6 6 6 11 1 17 -2 13 -5z"/>
<path d="M3200 4841 c0 -5 6 -11 12 -13 10 -4 5 -35 -16 -126 -25 -100 -27
-123 -17 -136 27 -32 77 -13 94 37 10 27 -12 20 -23 -8 -12 -30 -30 -33 -30
-4 0 17 38 180 56 242 5 14 -1 17 -35 17 -23 0 -41 -4 -41 -9z"/>
<path d="M3733 4830 c-48 -29 -60 -54 -98 -209 -40 -161 -38 -151 -26 -151 5
0 15 25 22 55 7 30 15 55 18 55 3 0 15 -7 25 -15 43 -33 137 -11 170 39 18 28
22 101 6 111 -6 4 -4 17 5 35 19 37 19 65 -1 84 -21 22 -82 20 -121 -4z m90
-4 c3 -8 1 -31 -4 -50 -9 -34 -13 -36 -50 -36 -33 0 -40 -3 -37 -17 2 -13 14
-18 43 -19 39 -1 40 -1 37 -35 -5 -48 -23 -81 -53 -98 -35 -19 -86 0 -95 36
-8 30 15 136 37 172 28 46 111 77 122 47z m-40 -103 c-7 -2 -19 -2 -25 0 -7 3
-2 5 12 5 14 0 19 -2 13 -5z"/>
<path d="M2233 4730 c-32 -19 -59 -57 -49 -67 3 -3 17 4 32 16 30 24 61 27 98
9 36 -16 44 -66 22 -147 -11 -42 -13 -68 -7 -74 12 -12 28 24 38 86 3 23 21
74 39 114 36 78 28 103 -8 28 -23 -47 -38 -58 -38 -26 0 25 -53 81 -77 81 -10
0 -32 -9 -50 -20z"/>
<path d="M2512 4743 c-14 -6 -46 -63 -35 -63 4 0 17 12 29 28 31 37 39 22 20
-34 -30 -90 -13 -129 55 -122 l37 3 -14 -27 c-15 -30 -42 -48 -70 -48 -14 0
-15 3 -6 12 20 20 14 40 -10 36 -17 -2 -23 -10 -23 -28 0 -22 5 -25 39 -28 47
-4 90 13 109 42 15 23 57 175 57 206 0 26 -26 26 -40 1 -5 -11 -15 -43 -21
-73 -14 -64 -24 -78 -56 -78 -34 0 -37 19 -15 85 19 56 19 58 1 76 -19 19 -33
22 -57 12z"/>
<path d="M3359 4737 c-19 -14 -43 -57 -32 -57 4 0 17 12 29 28 31 38 41 21 21
-36 -22 -61 -21 -78 3 -102 25 -25 81 -26 116 -3 32 20 64 83 66 127 2 54 -16
70 -47 40 -15 -15 -14 -18 6 -40 19 -21 20 -27 10 -53 -19 -45 -54 -73 -87
-69 -36 4 -42 31 -20 94 14 42 14 46 -4 64 -23 23 -38 25 -61 7z"/>
<path d="M1100 4715 c-23 -24 -21 -50 2 -27 14 14 78 16 78 4 0 -5 -9 -35 -19
-68 -20 -59 -16 -82 12 -71 9 3 19 32 27 76 l12 70 51 3 c40 2 53 7 55 21 3
15 -7 17 -96 17 -92 0 -100 -2 -122 -25z"/>
<path d="M2220 4400 c-8 -5 -41 -12 -72 -15 -32 -4 -58 -11 -58 -16 0 -5 -16
-9 -35 -9 -19 0 -35 -4 -35 -10 0 -5 -18 -13 -40 -16 -22 -4 -40 -9 -40 -13 0
-3 -15 -12 -32 -20 -67 -28 -103 -45 -108 -50 -7 -9 -40 -28 -80 -48 -19 -9
-43 -28 -53 -40 -10 -13 -24 -23 -31 -23 -6 0 -30 -18 -51 -40 -21 -22 -44
-40 -50 -40 -14 0 -75 -62 -75 -76 0 -5 -18 -28 -40 -49 -22 -21 -40 -45 -40
-52 0 -7 -3 -13 -7 -13 -5 0 -21 -20 -38 -45 -16 -24 -33 -45 -36 -45 -4 0
-10 -12 -14 -27 -3 -14 -19 -42 -36 -62 -16 -20 -29 -39 -29 -44 0 -5 -7 -25
-16 -45 -9 -21 -22 -50 -29 -66 -7 -16 -15 -24 -19 -17 -4 6 -20 11 -36 11
-16 0 -31 4 -34 9 -3 5 -33 12 -66 16 -33 4 -63 11 -66 16 -3 5 -18 9 -34 9
-16 0 -31 4 -34 9 -3 5 -33 12 -66 16 -33 4 -63 11 -66 16 -3 5 -18 9 -34 9
-16 0 -32 5 -35 10 -3 6 -19 10 -35 10 -16 0 -31 4 -35 9 -3 5 -34 13 -70 16
-36 4 -65 11 -65 16 0 5 -15 9 -34 9 -19 0 -37 4 -40 9 -3 4 -28 11 -55 15
-28 4 -53 11 -56 16 -3 6 -19 10 -34 10 -15 0 -31 4 -37 10 -5 5 -38 11 -73
12 -51 3 -65 0 -75 -14 -15 -24 3 -52 35 -56 13 -2 28 -8 33 -13 6 -5 22 -9
37 -9 15 0 30 -4 33 -9 3 -5 33 -12 66 -16 33 -4 63 -11 66 -16 3 -5 18 -9 34
-9 16 0 31 -4 34 -9 3 -5 33 -12 66 -16 33 -4 63 -11 66 -16 3 -5 18 -9 34 -9
16 0 31 -4 34 -9 3 -5 33 -12 66 -16 33 -4 63 -11 66 -16 3 -5 21 -9 40 -9 19
0 34 -4 34 -10 0 -5 16 -10 35 -10 19 0 35 -4 35 -9 0 -5 29 -13 65 -16 36 -4
65 -11 65 -16 0 -5 15 -9 34 -9 19 0 38 -4 41 -10 3 -5 15 -10 26 -10 14 0 19
-7 19 -28 0 -15 -5 -33 -10 -38 -6 -6 -13 -50 -17 -97 -3 -48 -10 -87 -14 -87
-12 0 -12 -267 -1 -274 5 -3 12 -42 15 -87 4 -46 11 -87 17 -93 5 -5 10 -22
10 -37 0 -15 4 -30 9 -33 4 -3 11 -24 15 -46 3 -23 10 -49 15 -58 5 -9 17 -35
26 -57 22 -52 39 -89 45 -95 8 -8 30 -44 39 -65 5 -12 16 -27 25 -34 9 -7 16
-20 16 -28 0 -7 7 -16 15 -19 8 -4 15 -11 15 -18 0 -6 23 -34 50 -61 28 -27
50 -54 50 -60 0 -14 62 -75 76 -75 5 0 28 -18 49 -40 21 -22 44 -40 50 -40 7
0 18 -11 25 -25 12 -22 11 -27 -5 -45 -18 -19 -36 -49 -51 -80 -4 -8 -15 -22
-24 -30 -9 -8 -20 -22 -23 -30 -4 -8 -16 -28 -27 -45 -11 -16 -23 -37 -27 -45
-3 -8 -21 -33 -40 -56 -18 -23 -33 -46 -33 -51 0 -6 -7 -17 -16 -24 -9 -7 -20
-22 -25 -34 -14 -32 -33 -59 -46 -68 -7 -4 -13 -14 -13 -21 0 -8 -7 -20 -16
-27 -9 -7 -20 -22 -25 -34 -13 -29 -32 -57 -50 -75 -8 -8 -19 -22 -22 -30 -4
-8 -16 -28 -27 -45 -11 -16 -23 -38 -26 -47 -4 -10 -9 -18 -13 -18 -4 0 -15
-15 -26 -32 -10 -18 -21 -35 -24 -38 -9 -7 -30 -42 -40 -65 -5 -12 -16 -27
-25 -34 -9 -7 -16 -19 -16 -26 0 -7 -7 -15 -15 -19 -8 -3 -15 -11 -15 -17 0
-7 -7 -21 -17 -31 -18 -20 -36 -50 -52 -85 -6 -13 -15 -23 -21 -23 -5 0 -10
-6 -10 -14 0 -7 -7 -20 -16 -27 -9 -7 -20 -22 -25 -34 -12 -26 -30 -54 -51
-79 -10 -11 -20 -28 -24 -38 -3 -10 -9 -18 -14 -18 -4 0 -11 -8 -14 -17 -9
-25 -26 -52 -61 -99 -36 -47 -52 -72 -64 -99 -5 -12 -16 -27 -25 -34 -9 -7
-16 -19 -16 -26 0 -7 -7 -15 -15 -19 -8 -3 -15 -12 -15 -19 0 -8 -7 -21 -16
-28 -9 -7 -20 -22 -25 -34 -12 -28 -31 -56 -71 -110 -13 -17 -29 -40 -36 -53
-12 -22 -11 -22 48 -22 54 0 61 3 69 23 5 13 16 29 25 36 9 7 16 20 16 28 0 7
7 16 15 19 8 4 15 14 15 24 0 10 7 20 15 24 8 3 15 14 15 25 0 10 7 22 15 25
9 3 21 19 26 36 6 16 15 30 20 30 5 0 9 7 9 15 0 8 4 15 8 15 5 0 17 16 28 35
10 19 22 35 26 35 5 0 8 7 8 15 0 8 4 15 9 15 5 0 13 10 17 23 4 12 15 29 25
38 11 9 19 21 19 27 0 6 6 17 12 24 17 19 36 48 48 76 5 12 17 25 25 28 8 4
15 14 15 24 0 10 7 20 15 24 8 3 15 14 15 25 0 10 7 21 15 25 8 3 20 17 25 31
5 14 14 25 20 25 5 0 10 9 10 20 0 11 4 20 9 20 5 0 13 10 17 23 4 12 15 29
24 37 9 8 20 25 24 38 4 12 12 22 17 22 5 0 9 7 9 15 0 8 4 15 8 15 5 0 17 16
28 35 10 19 21 35 25 35 4 0 9 8 13 18 7 23 27 53 47 72 9 8 19 25 23 38 4 12
12 22 17 22 5 0 9 6 9 14 0 7 7 19 15 26 8 7 15 21 15 31 0 10 9 21 20 24 11
4 20 15 20 26 0 11 7 22 15 25 8 4 15 14 15 24 0 10 7 21 15 24 9 3 21 19 26
36 6 16 15 30 20 30 5 0 9 7 9 15 0 8 4 15 9 15 5 0 13 10 17 23 4 12 14 29
23 37 20 19 40 49 47 73 4 9 9 17 13 17 4 0 15 15 26 33 10 17 21 34 24 37 9
8 30 42 41 68 5 12 17 25 25 28 8 4 15 15 15 25 0 10 5 19 10 19 6 0 10 -8 10
-19 0 -10 7 -24 15 -31 8 -7 15 -19 15 -26 0 -8 4 -14 9 -14 5 0 12 -11 15
-25 4 -14 11 -25 16 -25 6 0 10 -7 10 -15 0 -8 4 -15 8 -15 5 0 17 -19 27 -42
10 -24 22 -47 27 -53 4 -5 19 -24 33 -41 14 -18 25 -37 25 -43 0 -6 5 -11 10
-11 6 0 10 -6 10 -14 0 -8 6 -21 13 -28 16 -18 32 -45 54 -88 9 -19 20 -37 23
-40 4 -3 15 -20 25 -37 11 -18 23 -33 27 -33 4 0 8 -7 8 -15 0 -8 5 -15 10
-15 6 0 10 -9 10 -20 0 -11 7 -23 15 -26 8 -4 15 -15 15 -25 0 -10 4 -19 10
-19 5 0 17 -17 27 -37 9 -21 23 -44 30 -51 7 -7 13 -19 13 -26 0 -6 9 -18 20
-26 10 -8 22 -27 26 -42 3 -16 14 -34 25 -41 10 -6 19 -20 19 -29 0 -10 4 -18
10 -18 5 0 12 -11 16 -25 3 -14 10 -25 15 -25 5 0 9 -7 9 -15 0 -8 4 -15 9
-15 5 0 13 -10 17 -22 4 -13 15 -30 24 -38 9 -8 20 -25 24 -37 6 -17 15 -23
37 -23 34 0 53 15 63 48 4 12 12 22 17 22 5 0 9 7 9 15 0 8 4 15 9 15 5 0 19
20 31 44 11 24 27 49 35 56 7 6 16 23 20 37 3 15 15 34 25 43 10 9 22 29 26
44 3 15 15 33 25 39 11 7 19 20 19 30 0 10 7 20 15 23 8 4 15 15 15 25 0 10 3
19 8 19 7 0 25 30 38 63 3 9 10 17 15 17 5 0 9 6 9 14 0 7 7 19 15 26 8 7 15
21 15 31 0 11 5 19 10 19 6 0 10 7 10 15 0 8 4 15 9 15 5 0 13 10 17 23 4 12
15 29 25 38 11 9 22 30 25 47 4 18 14 34 25 37 11 4 19 13 19 21 0 13 26 62
40 74 3 3 14 22 23 43 10 20 22 37 27 37 6 0 10 9 10 19 0 10 7 21 15 25 8 3
15 15 15 26 0 11 5 20 10 20 6 0 10 7 10 15 0 8 4 15 9 15 5 0 13 10 17 22 7
22 32 54 38 47 1 -2 10 -20 20 -39 18 -37 38 -72 46 -80 8 -8 28 -42 47 -80 9
-19 23 -41 30 -48 7 -7 13 -20 13 -28 0 -8 5 -14 10 -14 6 0 10 -7 10 -15 0
-8 4 -15 10 -15 5 0 12 -11 16 -25 3 -14 10 -25 15 -25 5 0 9 -9 9 -19 0 -10
7 -21 15 -25 8 -3 15 -15 15 -26 0 -11 5 -20 10 -20 6 0 10 -7 10 -15 0 -8 3
-15 8 -15 9 0 42 -57 42 -73 0 -7 8 -17 19 -24 10 -6 22 -24 25 -39 4 -15 16
-35 26 -44 10 -9 22 -28 25 -43 4 -15 15 -33 25 -40 9 -6 20 -25 24 -41 4 -17
16 -37 26 -46 10 -9 22 -29 26 -44 3 -15 15 -33 25 -39 11 -7 19 -20 19 -29 0
-10 4 -18 9 -18 5 0 12 -11 15 -25 4 -14 11 -25 16 -25 6 0 10 -7 10 -15 0 -8
4 -15 9 -15 5 0 11 -14 15 -31 3 -18 15 -39 25 -48 11 -10 23 -29 26 -44 4
-15 15 -33 25 -40 9 -6 20 -23 23 -37 3 -14 15 -35 27 -47 11 -12 20 -27 20
-33 0 -5 4 -10 9 -10 5 0 12 -11 15 -25 4 -14 11 -25 16 -25 6 0 10 -9 10 -20
0 -11 4 -20 9 -20 5 0 11 -8 15 -17 5 -18 26 -53 36 -63 8 -8 28 -42 47 -80 9
-19 23 -41 30 -48 7 -7 13 -20 13 -28 0 -8 5 -14 10 -14 6 0 10 -7 10 -15 0
-8 4 -15 8 -15 5 0 16 -19 27 -42 23 -54 29 -58 92 -58 l53 0 -20 33 c-11 17
-24 41 -30 52 -5 11 -21 38 -35 60 -14 22 -28 47 -32 55 -3 8 -9 17 -12 20 -9
7 -28 40 -48 80 -9 19 -26 49 -37 65 -30 43 -43 65 -63 105 -9 19 -24 42 -34
50 -9 8 -20 26 -24 40 -4 14 -15 34 -25 45 -10 11 -21 31 -25 45 -4 14 -16 31
-26 38 -9 6 -20 25 -24 41 -3 16 -15 37 -26 47 -10 9 -19 23 -19 30 0 7 -10
25 -22 41 -13 15 -32 44 -42 63 -11 19 -22 37 -26 40 -3 3 -14 21 -23 40 -19
37 -39 72 -47 80 -8 8 -28 42 -50 85 -22 43 -42 77 -50 85 -8 8 -28 43 -47 80
-9 19 -20 37 -24 40 -4 3 -17 23 -28 45 -28 50 -41 72 -66 110 -11 17 -27 44
-35 60 -8 17 -25 43 -37 58 -13 16 -23 34 -23 41 0 7 -9 21 -19 30 -11 10 -22
29 -26 44 -3 14 -14 33 -24 41 -10 9 -22 27 -26 41 -4 14 -15 34 -25 45 -10
11 -21 30 -25 42 -5 18 -1 25 17 32 13 5 41 28 63 50 21 23 44 41 50 41 14 0
115 102 115 116 0 5 16 25 35 44 19 19 35 38 35 43 0 5 13 25 30 44 17 18 30
40 30 47 0 8 6 19 14 25 18 16 93 167 102 206 9 42 27 85 36 85 5 0 8 11 8 24
0 50 17 76 50 76 16 0 30 -4 30 -10 0 -5 15 -10 34 -10 19 0 37 -4 40 -9 3 -5
33 -12 66 -16 33 -4 63 -11 66 -16 3 -5 18 -9 34 -9 16 0 31 -4 34 -9 3 -5 33
-12 66 -16 33 -4 63 -11 66 -16 3 -5 16 -9 30 -9 13 0 24 -4 24 -9 0 -5 29
-12 65 -16 36 -3 67 -11 70 -16 4 -5 19 -9 35 -9 16 0 32 -4 35 -10 3 -5 19
-10 35 -10 16 0 31 -4 34 -9 3 -5 33 -12 66 -16 33 -4 63 -11 66 -16 8 -13 58
-11 72 3 16 16 15 46 -2 63 -7 8 -37 17 -65 21 -28 4 -54 11 -57 15 -3 5 -18
9 -34 9 -16 0 -31 4 -34 9 -3 5 -33 12 -66 16 -33 4 -63 11 -66 16 -3 5 -18 9
-34 9 -16 0 -32 5 -35 10 -3 6 -19 10 -35 10 -16 0 -31 4 -35 9 -3 5 -34 13
-70 16 -36 4 -65 11 -65 16 0 5 -16 9 -35 9 -19 0 -35 4 -35 9 0 5 -29 12 -65
16 -36 3 -67 11 -70 16 -4 5 -19 9 -34 9 -15 0 -31 3 -35 8 -4 4 -31 12 -59
17 -47 9 -52 13 -55 39 -2 16 1 33 7 39 14 14 15 293 1 302 -5 3 -10 28 -10
55 0 27 -4 51 -9 54 -4 3 -11 30 -15 61 -3 31 -10 63 -15 73 -17 33 -30 67
-36 97 -8 40 -28 85 -37 85 -5 0 -8 5 -8 11 0 18 -32 82 -57 114 -38 49 -59
81 -72 110 -5 11 -28 38 -50 60 -23 21 -41 43 -41 48 0 11 -77 87 -88 87 -4 0
-26 18 -47 40 -21 22 -44 40 -50 40 -6 0 -22 11 -35 25 -13 14 -29 25 -37 25
-7 0 -13 4 -13 8 0 5 -20 18 -44 30 -24 12 -49 29 -56 37 -7 8 -20 15 -29 15
-9 0 -38 11 -65 25 -27 14 -54 25 -59 25 -9 0 -66 23 -99 40 -9 5 -46 12 -83
16 -36 4 -68 11 -71 15 -7 12 -495 10 -514 -1z m414 -69 c3 -4 38 -11 78 -15
40 -4 77 -11 82 -16 6 -6 25 -10 43 -10 18 0 33 -4 33 -9 0 -4 17 -11 37 -14
34 -6 221 -93 233 -108 3 -4 24 -16 46 -28 23 -12 50 -31 59 -41 10 -11 24
-20 30 -20 7 0 26 -16 42 -35 17 -19 35 -35 40 -35 12 0 83 -70 83 -82 0 -5
19 -28 43 -51 24 -23 46 -49 50 -57 4 -8 16 -28 27 -45 11 -16 23 -37 27 -45
3 -8 15 -22 25 -31 10 -9 18 -20 18 -24 0 -7 18 -49 51 -120 10 -22 21 -52 25
-68 3 -15 10 -30 15 -33 5 -3 9 -18 9 -33 0 -15 5 -32 10 -37 6 -6 13 -47 17
-93 3 -45 10 -84 15 -87 12 -8 10 -294 -2 -294 -5 0 -10 -7 -10 -15 0 -17 -55
-22 -64 -6 -3 5 -33 12 -66 16 -33 4 -63 11 -66 16 -3 5 -18 9 -33 9 -15 0
-32 5 -37 10 -6 6 -34 13 -62 17 -29 3 -52 10 -52 14 0 5 -16 9 -35 9 -19 0
-35 5 -35 10 0 6 -15 10 -34 10 -19 0 -37 4 -40 9 -3 5 -33 12 -66 16 -33 4
-63 11 -66 16 -3 5 -18 9 -34 9 -16 0 -31 4 -34 9 -3 5 -33 12 -66 16 -33 4
-63 11 -66 16 -3 5 -18 9 -34 9 -16 0 -31 4 -34 9 -3 5 -33 12 -66 16 -33 4
-63 11 -66 16 -3 5 -21 9 -40 9 -19 0 -34 5 -34 10 0 6 -15 10 -34 10 -19 0
-36 4 -38 10 -1 5 -31 13 -65 16 -35 4 -63 11 -63 15 0 5 -15 9 -34 9 -19 0
-37 4 -40 9 -3 5 -33 12 -66 16 -33 4 -63 11 -66 16 -3 5 -18 9 -34 9 -16 0
-31 4 -34 9 -3 5 -33 12 -66 16 -33 4 -63 11 -66 16 -3 5 -18 9 -34 9 -16 0
-32 5 -35 10 -3 6 -19 10 -35 10 -16 0 -31 4 -35 9 -3 6 -27 13 -53 16 -26 3
-55 10 -64 16 -10 5 -29 9 -42 9 -14 0 -27 4 -30 9 -3 5 -33 12 -66 16 -33 4
-63 11 -66 16 -3 5 -18 9 -34 9 -16 0 -31 4 -34 9 -3 5 -33 12 -66 16 -33 4
-63 11 -66 16 -3 5 -16 9 -30 9 -13 0 -34 6 -47 13 -12 6 -23 12 -24 13 -2 0
8 23 22 50 14 27 25 55 25 62 0 6 3 12 8 12 7 0 42 72 42 86 0 4 8 14 18 23
19 18 37 45 51 76 5 11 34 45 65 75 31 30 56 60 56 67 0 7 6 13 13 13 7 0 35
23 62 50 27 28 54 50 60 50 7 0 22 11 35 25 13 14 29 25 37 25 7 0 13 3 13 8
0 4 9 12 20 17 217 109 252 125 279 125 12 0 21 5 21 10 0 6 15 10 34 10 19 0
36 4 38 10 2 5 43 13 91 16 48 4 90 11 93 16 7 11 281 11 288 -1z m-1359 -931
c3 -5 19 -10 35 -10 16 0 31 -4 34 -9 3 -5 33 -12 66 -16 33 -4 63 -11 66 -16
3 -5 18 -9 34 -9 16 0 31 -4 35 -9 3 -5 34 -13 70 -16 36 -4 65 -11 65 -16 0
-5 16 -9 35 -9 19 0 35 -4 35 -10 0 -5 15 -10 34 -10 19 0 37 -4 40 -9 3 -5
33 -12 66 -16 33 -4 63 -11 66 -16 3 -5 18 -9 34 -9 16 0 31 -4 34 -9 3 -5 33
-12 66 -16 33 -4 63 -11 66 -16 3 -5 18 -9 34 -9 16 0 31 -4 34 -9 3 -5 33
-12 66 -16 33 -4 63 -11 66 -16 3 -5 16 -9 30 -9 15 0 24 -6 24 -15 0 -8 -4
-15 -9 -15 -5 0 -19 -20 -31 -44 -11 -24 -27 -49 -35 -56 -7 -6 -16 -23 -20
-37 -3 -15 -14 -34 -23 -43 -21 -19 -35 -42 -62 -97 -11 -24 -24 -43 -28 -43
-4 0 -15 -17 -25 -37 -20 -44 -37 -71 -56 -92 -8 -8 -20 -29 -27 -46 -7 -18
-19 -37 -27 -44 -8 -6 -18 -24 -22 -38 -3 -15 -14 -34 -23 -43 -21 -19 -35
-42 -62 -97 -11 -24 -24 -43 -28 -43 -4 0 -15 -17 -25 -37 -21 -47 -37 -73
-57 -93 -18 -18 -37 -47 -49 -75 -5 -12 -16 -27 -25 -34 -9 -7 -16 -18 -16
-23 0 -5 -9 -21 -19 -34 -17 -22 -21 -23 -34 -9 -9 8 -19 15 -24 15 -5 0 -27
18 -48 40 -21 22 -43 40 -49 40 -14 0 -56 41 -56 55 0 6 -22 33 -50 60 -27 27
-50 55 -50 62 0 7 -4 13 -9 13 -5 0 -13 10 -17 23 -4 12 -15 29 -24 37 -9 8
-21 26 -25 40 -4 14 -14 32 -22 41 -21 25 -53 91 -53 111 0 10 -4 18 -10 18
-5 0 -10 8 -10 19 0 10 -7 32 -15 47 -8 16 -15 41 -15 56 0 15 -4 30 -10 33
-5 3 -10 19 -10 34 0 15 -6 33 -12 40 -10 9 -13 72 -13 246 0 174 3 237 13
247 6 6 12 21 12 33 0 52 45 97 65 65z m1235 -375 c0 -7 9 -20 19 -29 11 -10
22 -29 26 -44 3 -14 17 -39 31 -55 13 -16 24 -34 24 -42 0 -7 7 -18 16 -25 8
-8 21 -27 28 -45 7 -17 20 -37 27 -45 8 -8 23 -31 32 -50 19 -38 39 -72 47
-80 8 -8 28 -43 47 -80 9 -19 28 -51 43 -70 14 -19 32 -48 40 -65 8 -16 21
-37 29 -45 8 -8 20 -28 27 -45 7 -18 19 -37 27 -44 8 -6 18 -24 22 -38 3 -15
15 -34 25 -43 10 -9 22 -28 25 -42 4 -15 15 -34 26 -44 10 -9 19 -23 19 -30 0
-7 11 -25 24 -41 13 -15 26 -38 30 -50 6 -18 1 -25 -31 -39 -21 -10 -40 -21
-43 -24 -7 -9 -76 -40 -89 -40 -6 0 -11 -4 -11 -10 0 -5 -11 -10 -24 -10 -14
0 -27 -4 -31 -9 -3 -6 -26 -13 -50 -17 -25 -3 -48 -10 -51 -15 -3 -5 -23 -9
-44 -9 -22 0 -40 -5 -42 -12 -7 -19 -481 -19 -499 -1 -7 7 -25 13 -40 13 -15
0 -30 4 -33 9 -3 4 -28 11 -55 15 -28 4 -53 11 -56 16 -3 6 -14 10 -25 10 -19
0 -163 70 -168 83 -2 4 -9 7 -17 7 -7 0 -17 6 -23 13 -8 9 -6 16 7 24 10 6 22
24 25 39 4 15 22 45 40 68 18 23 40 57 50 76 17 37 38 72 46 80 8 8 30 44 39
65 5 12 16 27 25 34 9 7 16 19 16 26 0 8 11 26 24 42 13 15 27 39 31 53 4 14
22 43 40 65 17 22 39 56 49 75 17 37 38 72 46 80 8 8 30 44 39 65 5 12 16 27
25 34 9 7 16 19 16 26 0 8 11 26 24 42 14 16 28 42 31 56 4 15 15 33 24 40 19
15 35 38 58 90 16 34 19 36 30 20 7 -9 13 -22 13 -28z m120 35 c0 -5 15 -10
34 -10 19 0 38 -4 41 -10 3 -5 28 -12 56 -16 27 -4 52 -11 55 -15 3 -5 18 -9
34 -9 16 0 31 -4 34 -9 3 -5 33 -12 66 -16 33 -4 63 -11 66 -16 3 -5 21 -9 40
-9 19 0 34 -4 34 -9 0 -5 29 -13 65 -16 36 -4 65 -11 65 -16 0 -5 15 -9 34 -9
19 0 38 -4 41 -10 3 -5 19 -10 35 -10 16 0 31 -4 34 -9 3 -5 33 -12 66 -16 33
-4 63 -11 66 -16 3 -5 18 -9 34 -9 16 0 31 -4 34 -9 3 -5 33 -12 66 -16 33 -4
63 -11 66 -16 3 -5 16 -9 30 -9 17 0 24 -5 24 -19 0 -11 -4 -23 -10 -26 -5 -3
-10 -19 -10 -35 0 -16 -4 -32 -10 -35 -5 -3 -10 -16 -10 -29 0 -12 -7 -31 -15
-42 -8 -10 -15 -29 -15 -41 0 -13 -3 -23 -8 -23 -8 0 -42 -73 -42 -90 0 -6 -4
-10 -8 -10 -4 0 -16 -15 -27 -32 -10 -18 -21 -35 -24 -38 -8 -7 -29 -42 -40
-65 -5 -11 -23 -33 -40 -49 -17 -17 -31 -35 -31 -40 0 -6 -21 -29 -46 -51 -25
-22 -69 -61 -97 -86 -29 -25 -59 -48 -67 -51 -14 -4 -49 30 -63 62 -11 25 -31
54 -49 70 -9 9 -20 28 -23 42 -4 15 -15 34 -26 44 -10 9 -19 23 -19 30 0 7
-11 25 -24 41 -14 16 -28 42 -31 56 -4 15 -15 33 -25 40 -9 6 -21 23 -25 37
-4 14 -15 34 -24 45 -9 11 -25 36 -35 55 -11 19 -22 37 -26 40 -3 3 -14 21
-23 40 -20 40 -39 73 -48 80 -3 3 -9 12 -12 20 -4 8 -16 29 -27 45 -10 17 -26
44 -35 61 -9 17 -25 41 -35 52 -11 11 -22 32 -26 46 -3 14 -9 26 -14 26 -4 0
-15 17 -26 38 -10 20 -27 47 -38 60 l-19 22 26 0 c15 0 27 -4 27 -10z m-704
-1265 c36 -19 83 -38 105 -41 21 -4 39 -10 39 -15 0 -5 15 -9 34 -9 19 0 36
-4 38 -10 2 -5 43 -13 91 -16 48 -4 90 -11 93 -16 7 -11 301 -11 308 1 3 5 44
12 91 16 47 4 87 11 91 16 3 5 18 9 34 9 16 0 31 4 34 9 3 4 24 11 46 15 36 6
75 21 90 36 11 11 57 29 90 36 l35 6 -22 -24 c-13 -13 -23 -29 -23 -36 0 -6
-6 -15 -13 -19 -7 -4 -21 -24 -30 -43 -20 -40 -33 -62 -63 -105 -11 -16 -28
-46 -37 -65 -25 -49 -39 -72 -59 -90 -9 -9 -20 -28 -23 -42 -4 -15 -15 -34
-26 -44 -10 -9 -19 -23 -19 -30 0 -7 -11 -25 -24 -41 -13 -15 -27 -39 -31 -53
-4 -14 -15 -32 -24 -40 -19 -18 -33 -40 -61 -95 -22 -43 -42 -77 -50 -85 -8
-8 -28 -42 -47 -80 -18 -37 -19 -37 -57 -86 -14 -17 -28 -42 -31 -57 -7 -28
-25 -37 -25 -13 0 8 -4 16 -9 18 -4 2 -19 21 -32 44 -13 23 -40 65 -60 95 -19
30 -38 61 -43 69 -9 20 -27 49 -51 85 -33 49 -45 69 -54 90 -5 12 -16 27 -25
34 -9 7 -16 20 -16 27 0 8 -4 14 -9 14 -5 0 -11 8 -15 18 -3 9 -15 31 -26 47
-11 17 -23 38 -26 48 -4 9 -10 17 -14 17 -4 0 -11 8 -14 18 -8 22 -29 57 -47
79 -8 10 -23 34 -33 53 -11 19 -22 37 -25 40 -9 7 -28 40 -48 80 -9 19 -23 39
-30 43 -7 4 -13 13 -13 19 0 7 -9 21 -19 32 -23 25 -38 76 -22 76 6 0 40 -16
77 -35z"/>
</g>
</svg>
